<?xml version="1.0" encoding="UTF-8" standalone="no"?>
<!-- Created with Inkscape (http://www.inkscape.org/) -->

<svg
   xmlns:dc="http://purl.org/dc/elements/1.1/"
   xmlns:cc="http://creativecommons.org/ns#"
   xmlns:rdf="http://www.w3.org/1999/02/22-rdf-syntax-ns#"
   xmlns:svg="http://www.w3.org/2000/svg"
   xmlns="http://www.w3.org/2000/svg"
   xmlns:xlink="http://www.w3.org/1999/xlink"
   xmlns:sodipodi="http://sodipodi.sourceforge.net/DTD/sodipodi-0.dtd"
   xmlns:inkscape="http://www.inkscape.org/namespaces/inkscape"
   width="500"
   height="333"
   id="svg6859"
   version="1.1"
   inkscape:version="0.48.5 r10040"
   sodipodi:docname="love-spray.svg">
  <defs
     id="defs6861">
    <linearGradient
       id="linearGradient24464">
      <stop
         id="stop24466"
         offset="0"
         style="stop-color:#34c5ea;stop-opacity:1;" />
      <stop
         id="stop24468"
         offset="1"
         style="stop-color:#b8d7ea;stop-opacity:1;" />
    </linearGradient>
    <linearGradient
       id="linearGradient6684-6">
      <stop
         id="stop6686-3"
         offset="0.0000000"
         style="stop-color:#ffbf00;stop-opacity:1.0000000;" />
      <stop
         id="stop6688-7"
         offset="1.0000000"
         style="stop-color:#ffffff;stop-opacity:1.0000000;" />
    </linearGradient>
    <linearGradient
       id="linearGradient5704-1">
      <stop
         id="stop5706-5"
         offset="0"
         style="stop-color:#5a5a5a;stop-opacity:1;" />
      <stop
         id="stop5708-0"
         offset="1.0000000"
         style="stop-color:#000000;stop-opacity:1.0000000;" />
    </linearGradient>
    <linearGradient
       inkscape:collect="always"
       xlink:href="#linearGradient24464"
       id="linearGradient7773"
       gradientUnits="userSpaceOnUse"
       gradientTransform="matrix(-16.11175,12.95624,-15.121945,-14.827819,3788.2344,825.78078)"
       x1="99.279366"
       y1="121.4717"
       x2="95.750748"
       y2="118.64024" />
    <linearGradient
       inkscape:collect="always"
       xlink:href="#linearGradient5704-1"
       id="linearGradient7775"
       gradientUnits="userSpaceOnUse"
       gradientTransform="matrix(-18.824377,10.868259,-10.868259,-18.824377,12868.053,38.312404)"
       x1="497.19922"
       y1="276.5925"
       x2="501.15674"
       y2="279.68689" />
  </defs>
  <sodipodi:namedview
     id="base"
     pagecolor="#ffffff"
     bordercolor="#666666"
     borderopacity="1.0"
     inkscape:pageopacity="0.0"
     inkscape:pageshadow="2"
     inkscape:zoom="1.095627"
     inkscape:cx="75.510053"
     inkscape:cy="232.13512"
     inkscape:current-layer="layer1"
     inkscape:document-units="px"
     showgrid="false"
     showguides="true"
     inkscape:window-width="1920"
     inkscape:window-height="1017"
     inkscape:window-x="-8"
     inkscape:window-y="-8"
     inkscape:window-maximized="1">
    <inkscape:grid
       type="xygrid"
       id="grid7012"
       empspacing="5"
       visible="true"
       enabled="true"
       snapvisiblegridlinesonly="true" />
  </sodipodi:namedview>
  <metadata
     id="metadata6864">
    <rdf:RDF>
      <cc:Work
         rdf:about="">
        <dc:format>image/svg+xml</dc:format>
        <dc:type
           rdf:resource="http://purl.org/dc/dcmitype/StillImage" />
        <dc:title></dc:title>
      </cc:Work>
    </rdf:RDF>
  </metadata>
  <g
     id="layer1"
     inkscape:label="Layer 1"
     inkscape:groupmode="layer"
     style="display:inline"
     transform="translate(0,-147)">
    <path
       inkscape:connector-curvature="0"
       style="fill:none;stroke:none"
       d="m 113.20599,16.227065 425.43264,0 0,425.432645 -425.43264,0 0,-425.432645 z"
       id="path5769" />
    <g
       id="g7746"
       transform="matrix(0.80727161,0,0,0.80727161,11.874463,85.257369)">
      <g
         transform="translate(19.167107,60.803077)"
         id="g7574">
        <path
           style="fill:url(#linearGradient7773);fill-opacity:1;fill-rule:evenodd;stroke:none"
           d="m 498.18637,220.74088 -27.77455,-12.08709 -137.85205,16.67328 -23.85312,23.57729 22.35649,111.17272 c 47.061,-24.12695 74.62212,95.46938 196.98063,32.73928 l -29.8574,-172.07548 z"
           id="path6315-8"
           sodipodi:nodetypes="ccccccc"
           inkscape:connector-curvature="0" />
        <path
           sodipodi:nodetypes="cc"
           id="path6321-0"
           d="m 457.22749,268.4682 18.14878,140.11731"
           style="fill:none;stroke:#ffffff;stroke-width:21.73652077px;stroke-linecap:round;stroke-linejoin:miter;stroke-opacity:1"
           inkscape:connector-curvature="0" />
      </g>
      <g
         id="g7723">
        <path
           inkscape:connector-curvature="0"
           id="path6317-2"
           style="fill:none;stroke:#000000;stroke-width:16.74615669;stroke-linecap:round;stroke-linejoin:round;stroke-miterlimit:4;stroke-opacity:1;display:inline"
           d="M 344.79694,415.27998 330.7722,326.12392 c -3.80833,-14.85575 7.60585,-34.28717 20.37414,-33.65911 47.03229,2.31212 92.90811,-3.15201 137.15541,-20.21863 8.47675,-3.27018 29.92493,10.97555 31.80747,21.27304 l 21.66746,154.66415"
           sodipodi:nodetypes="ccsscc" />
        <path
           sodipodi:nodetypes="cccc"
           id="path6331-0"
           d="m 448.47611,226.21247 -10.85739,-37.69458 c -8.98549,-25.09715 -74.44947,-19.31517 -65.17504,6.72042 l 7.53689,36.53385"
           style="fill:#ffffff;fill-opacity:0.75;fill-rule:evenodd;stroke:#000000;stroke-width:17.72636032;stroke-linecap:round;stroke-linejoin:round;stroke-miterlimit:4;stroke-opacity:1;stroke-dasharray:none"
           inkscape:connector-curvature="0" />
        <path
           sodipodi:nodetypes="cccc"
           id="path5211-1"
           d="m 486.1994,268.41563 -15.09842,-45.44862 -114.76258,18.59035 -6.26574,52.09068"
           style="fill:#ee811c;fill-opacity:0.89528791;fill-rule:evenodd;stroke:url(#linearGradient7775);stroke-width:17.72636032;stroke-linecap:round;stroke-linejoin:round;stroke-opacity:1"
           inkscape:connector-curvature="0" />
        <path
           sodipodi:nodetypes="ccccc"
           id="path6311-1"
           d="m 467.65781,185.71997 -106.44644,11.25818 4.3692,72.77646 101.01171,-20.67071 1.06535,-63.36393 z"
           style="fill:none;stroke:none"
           inkscape:connector-curvature="0" />
        <path
           sodipodi:type="arc"
           style="color:#000000;fill:#000000;stroke:none;stroke-width:0.22950418;marker:none;visibility:visible;display:inline;overflow:visible;enable-background:accumulate"
           id="path23475"
           sodipodi:cx="206.58955"
           sodipodi:cy="518.42188"
           sodipodi:rx="0.92537314"
           sodipodi:ry="0.92537314"
           d="m 207.51493,518.42187 c 0,0.51107 -0.41431,0.92538 -0.92538,0.92538 -0.51107,0 -0.92537,-0.41431 -0.92537,-0.92538 0,-0.51106 0.4143,-0.92537 0.92537,-0.92537 0.51107,0 0.92538,0.41431 0.92538,0.92537 z"
           transform="matrix(7.7237633,0,0,7.7237633,-1253.2454,-3798.0835)" />
        <use
           x="0"
           y="0"
           xlink:href="#path23475"
           id="use23477"
           transform="matrix(1.0586461,0,0,1.0586461,-33.65061,7.9313395)"
           width="744.09448"
           height="1052.3622" />
        <use
           x="0"
           y="0"
           xlink:href="#use23477"
           id="use23479"
           transform="translate(0,-39.142786)"
           width="744.09448"
           height="1052.3622" />
        <use
           x="0"
           y="0"
           xlink:href="#use23479"
           id="use23481"
           transform="translate(-12.377092,19.125303)"
           width="744.09448"
           height="1052.3622" />
        <use
           x="0"
           y="0"
           xlink:href="#use23477"
           id="use23483"
           transform="matrix(1.3762691,0,0,1.3762691,-148.3166,-69.769274)"
           width="744.09448"
           height="1052.3622" />
        <use
           x="0"
           y="0"
           xlink:href="#use23479"
           id="use23485"
           transform="matrix(1.3762691,0,0,1.3762691,-154.19838,-86.310804)"
           width="744.09448"
           height="1052.3622" />
        <use
           x="0"
           y="0"
           xlink:href="#use23481"
           id="use23487"
           transform="matrix(1.3762691,0,0,1.3762691,-148.22372,-77.543169)"
           width="744.09448"
           height="1052.3622" />
        <use
           x="0"
           y="0"
           xlink:href="#path23475"
           id="use23501"
           transform="translate(-75.085578,-23.103254)"
           width="744.09448"
           height="1052.3622" />
        <use
           x="0"
           y="0"
           xlink:href="#use23501"
           id="use23503"
           transform="translate(7.9417438,47.650462)"
           width="744.09448"
           height="1052.3622" />
        <path
           style="fill:#ee1c23;fill-opacity:0.89528791;stroke:#000000;stroke-width:1.27867329;stroke-miterlimit:4;stroke-opacity:1;stroke-dasharray:none"
           d="m 129.21729,276.74974 c -0.11836,-0.0389 -1.32788,-0.42891 -2.68801,-0.86684 -15.65173,-5.03927 -30.618034,-16.24385 -39.490064,-29.56436 -9.585148,-14.39121 -12.962911,-30.79281 -8.873789,-43.0891 3.061718,-9.20685 9.937481,-15.36491 19.390604,-17.36659 3.228959,-0.68374 8.769349,-0.68545 12.184119,-0.003 6.4069,1.27899 12.71005,4.43635 16.96711,8.49907 1.1625,1.10943 4.12282,4.72191 4.12282,5.03106 0,0.12635 0.0725,0.26176 0.16127,0.30129 0.0888,0.0395 0.43073,0.48588 0.76003,0.99215 0.48026,0.73828 0.67015,0.88051 0.95942,0.71863 0.25696,-0.14367 0.59103,-0.0693 1.16093,0.25883 0.44014,0.25323 0.83725,0.41377 0.88249,0.35657 0.0453,-0.0573 0.6009,-0.82979 1.23482,-1.71683 5.4482,-7.62367 13.80316,-12.8635 23.54899,-14.76879 2.76746,-0.54103 9.19872,-0.54098 11.70954,1.1e-4 4.65674,1.0035 8.04411,2.78092 11.10865,5.82889 7.67205,7.6306 8.88104,20.8653 3.28206,35.92743 -1.2541,3.37361 -4.38259,9.63638 -6.43888,12.88962 -9.4403,14.93527 -24.50094,27.3404 -41.42425,34.12018 -4.75323,1.90422 -7.6766,2.74201 -8.55789,2.45253 l 0,0 z"
           id="path7018"
           inkscape:connector-curvature="0" />
        <use
           x="0"
           y="0"
           xlink:href="#path7018"
           id="use7528"
           transform="matrix(0.82376178,0,0,0.82376178,82.729019,137.43033)"
           width="640"
           height="480" />
        <use
           x="0"
           y="0"
           xlink:href="#use7528"
           id="use7530"
           transform="matrix(0.71161018,0,0,0.71161018,32.428601,-109.28385)"
           width="640"
           height="480" />
        <use
           x="0"
           y="0"
           xlink:href="#use7530"
           id="use7532"
           transform="matrix(0.64826055,0,0,0.64826055,137.86756,51.340312)"
           width="640"
           height="480" />
        <use
           x="0"
           y="0"
           xlink:href="#use7532"
           id="use7534"
           transform="matrix(0.81913679,0,0,0.81913679,62.372308,169.39172)"
           width="640"
           height="480" />
        <use
           x="0"
           y="0"
           xlink:href="#use7534"
           id="use7536"
           transform="translate(-23.730704,-72.104832)"
           width="640"
           height="480" />
        <use
           x="0"
           y="0"
           xlink:href="#use7534"
           id="use7542"
           transform="matrix(0.74264796,0,0,0.77920268,18.029598,41.590742)"
           width="640"
           height="480" />
        <use
           x="0"
           y="0"
           xlink:href="#use7542"
           id="use7544"
           transform="translate(-5.4763164,-83.970185)"
           width="640"
           height="480" />
      </g>
    </g>
    <text
       xml:space="preserve"
       style="font-size:56.41099548px;font-style:normal;font-variant:normal;font-weight:bold;font-stretch:normal;text-align:center;line-height:89.99999762%;letter-spacing:0px;word-spacing:0px;writing-mode:lr-tb;text-anchor:middle;fill:#1d4080;fill-opacity:1;stroke:none;font-family:Sakkal Majalla;-inkscape-font-specification:Sakkal Majalla Bold"
       x="146.54408"
       y="416.35938"
       id="text7546"
       sodipodi:linespacing="89.999998%"><tspan
         sodipodi:role="line"
         id="tspan7548"
         x="150.841"
         y="416.35938">All you need </tspan><tspan
         sodipodi:role="line"
         x="146.54408"
         y="467.12927"
         id="tspan7550">is LOVE</tspan></text>
  </g>
  <g
     inkscape:groupmode="layer"
     id="layer2"
     inkscape:label="Layer"
     transform="translate(0,-67)">
    <text
       xml:space="preserve"
       style="font-size:28px;font-style:normal;font-variant:normal;font-weight:normal;font-stretch:normal;text-align:start;line-height:125%;letter-spacing:0px;word-spacing:0px;writing-mode:lr-tb;text-anchor:start;opacity:0.15789472;fill:#000000;fill-opacity:1;stroke:none;font-family:Arial;-inkscape-font-specification:Arial"
       x="335.88074"
       y="102.45348"
       id="text7643"
       sodipodi:linespacing="125%"><tspan
         sodipodi:role="line"
         id="tspan7645"
         x="335.88074"
         y="102.45348">norfipc.com</tspan></text>
  </g>
</svg>
